#!OML:ASF Y:\EmotionMaleHayes\Project 1\Capture day 1\Session 1\Male1.ASF
:FULLY-SPECIFIED
:DEGREES
315
root -9.55335 15.9432 -3.93233 -16.692 62.1405 -43.2639
lowerback 26.9845 9.81443 10.0577
upperback 9.50036 16.5746 10.3322
thorax -4.33064 8.25815 0.886485
lowerneck -20.359 3.22145 8.65197
upperneck 3.48448 3.10657 -8.82498
head 4.56269 1.15617 -3.8793
rclavicle 8.26944e-014 1.35174e-013
rhumerus -14.1181 18.0328 -82.1606
rradius 61.1252
rwrist -18.0096
rhand -21.6395 -22.443
rfingers 7.12502
rthumb 4.75684 -52.3696
lclavicle 8.26944e-014 1.35174e-013
lhumerus -17.1215 13.4025 8.62106
lradius 67.8696
lwrist 22.9047
lhand -38.2224 -23.6512
lfingers 7.12502
lthumb -11.2538 6.02689
rfemur 26.5896 9.40911 17.905
rtibia 51.1828
rfoot 7.1057 0.0903663
rtoes 13.6762
lfemur -48.3696 12.5846 -17.2278
ltibia 53.0928
lfoot -29.2921 10.8423
ltoes 7.67732
316
root -9.30638 15.8176 -3.87498 -14.5223 63.2651 -40.2701
lowerback 26.6957 10.0181 8.16517
upperback 9.30012 16.3018 10.0196
thorax -4.84403 8.089 1.54608
lowerneck -20.1307 3.25709 8.4507
upperneck 2.93236 3.17763 -8.52726
head 4.35127 1.21944 -3.74246
rclavicle -6.36111e-014 6.99722e-014
rhumerus -15.152 20.8531 -84.8421
rradius 63.5198
rwrist -16.7364
rhand -21.0771 -22.5726
rfingers 7.12502
rthumb 5.29995 -52.4864
lclavicle -6.36111e-014 6.99722e-014
lhumerus -15.1792 16.1176 6.74522
lradius 66.8331
lwrist 23.4336
lhand -39.167 -23.8565
lfingers 7.12502
lthumb -12.1647 5.7698
rfemur 26.5896 9.40911 17.905
rtibia 51.1828
rfoot 7.1057 0.0903663
rtoes 13.6762
lfemur -47.8404 11.6256 -19.3039
ltibia 54.7262
lfoot -29.8003 10.1386
ltoes 6.45055
317
root -9.04806 15.7196 -3.83043 -11.189 64.7177 -35.8638
lowerback 26.7403 10.1209 5.9948
upperback 9.15897 15.8395 9.53806
thorax -5.44951 7.82738 2.19726
lowerneck -19.9582 3.30152 8.23827
upperneck 2.30529 3.27141 -8.34514
head 4.13005 1.28731 -3.63991
rclavicle -6.67916e-014 -6.20208e-014
rhumerus -15.9121 23.7308 -87.1907
rradius 65.605
rwrist -15.9054
rhand -20.44 -22.741
rfingers 7.12502
rthumb 5.91507 -52.6384
lclavicle -6.67916e-014 -6.20208e-014
lhumerus -13.3329 19.0069 5.29136
lradius 66.1759
lwrist 23.8307
lhand -40.3164 -24.3222
lfingers 7.12502
lthumb -13.2728 5.23523
rfemur 26.5896 9.40911 17.905
rtibia 51.1828
rfoot 7.1057 0.0903663
rtoes 13.6762
lfemur -46.809 10.4282 -22.2406
ltibia 55.9907
lfoot -30.2061 9.53665
ltoes 4.64251
318
root -8.78029 15.642 -3.78701 -7.83767 66.1418 -31.3371
lowerback 26.9558 10.1789 4.00254
upperback 9.11842 15.381 9.14811
thorax -5.97667 7.58295 2.87398
lowerneck -19.8807 3.29318 7.93064
upperneck 1.63564 3.31643 -8.1979
head 3.90579 1.32828 -3.53885
rclavicle 0 -2.06736e-014
rhumerus -16.6962 26.4532 -89.0602
rradius 67.8852
rwrist -15.0609
rhand -19.6438 -20.9874
rfingers 7.12502
rthumb 6.68366 -50.8619
lclavicle 0 -2.06736e-014
lhumerus -11.3173 22.1329 4.46704
lradius 65.7701
lwrist 24.0597
lhand -41.6667 -25.2494
lfingers 7.12502
lthumb -14.574 4.21861
rfemur 26.5896 9.40911 17.905
rtibia 51.1828
rfoot 7.1057 0.0903663
rtoes 13.6762
lfemur -45.0478 9.45472 -25.0005
ltibia 56.4457
lfoot -30.4015 8.80004
ltoes 3.8788
319
root -8.52091 15.577 -3.73742 -4.69989 67.589 -27.2546
lowerback 27.0493 10.2082 2.2447
upperback 9.09266 14.9512 8.88428
thorax -6.38173 7.36814 3.60629
lowerneck -20.0025 3.24627 7.50919
upperneck 1.11676 3.32978 -8.02243
head 3.75318 1.35053 -3.41357
rclavicle -1.27222e-014 3.65764e-014
rhumerus -17.6668 28.817 -90.5832
rradius 70.5275
rwrist -13.9924
rhand -18.2873 -19.0638
rfingers 7.12502
rthumb 7.99304 -48.8927
lclavicle -1.27222e-014 3.65764e-014
lhumerus -8.92549 25.3845 4.24944
lradius 65.2915
lwrist 23.9308
lhand -42.793 -26.4914
lfingers 7.12502
lthumb -15.659 2.89488
rfemur 26.5896 9.40911 17.905
rtibia 51.1828
rfoot 7.1057 0.0903663
rtoes 13.6762
lfemur -43.1882 8.75542 -27.3581
ltibia 56.4369
lfoot -30.5614 7.82611
ltoes 3.51193
320
root -8.27085 15.5194 -3.69487 -2.15174 69.1854 -24.2762
lowerback 26.8225 10.0853 1.1056
upperback 8.96994 14.4909 8.70997
thorax -6.59497 7.1516 4.1864
lowerneck -20.4012 3.20166 7.05538
upperneck 0.951953 3.35169 -7.85898
head 3.75139 1.36749 -3.28501
rclavicle -3.81667e-014 -3.18055e-015
rhumerus -18.9011 30.8068 -91.8536
rradius 73.5227
rwrist -12.8869
rhand -16.6303 -18.4617
rfingers 7.12502
rthumb 9.59209 -48.2234
lclavicle -3.81667e-014 -3.18055e-015
lhumerus -6.28583 28.3808 4.65916
lradius 65.0181
lwrist 23.777
lhand -44.1031 -28.1112
lfingers 7.12502
lthumb -16.9205 1.17173
rfemur 26.5896 9.40911 17.905
rtibia 51.1828
rfoot 7.1057 0.0903663
rtoes 13.6762
lfemur -41.7021 8.06645 -29.2031
ltibia 56.2914
lfoot -30.8756 6.75287
ltoes 3.15528
321
root -8.01676 15.4705 -3.66915 -0.808645 70.9197 -22.9986
lowerback 26.2398 9.74078 0.84604
upperback 8.72149 13.9832 8.64336
thorax -6.58726 6.92084 4.48804
lowerneck -20.8735 3.12164 6.65297
upperneck 1.05826 3.32365 -7.7594
head 3.84313 1.35018 -3.18929
rclavicle -9.54166e-015 -4.6118e-014
rhumerus -20.3087 32.5759 -92.85
rradius 76.6082
rwrist -12.0539
rhand -14.8457 -18.0236
rfingers 7.12502
rthumb 11.3136 -47.6985
lclavicle -9.54166e-015 -4.6118e-014
lhumerus -3.31577 30.8816 5.7368
lradius 65.0659
lwrist 24.0249
lhand -45.9922 -31.4158
lfingers 7.12502
lthumb -18.7382 -2.2983
rfemur 26.5896 9.40911 17.905
rtibia 51.1828
rfoot 7.1057 0.0903663
rtoes 13.6762
lfemur -40.4364 7.19044 -30.3501
ltibia 55.9408
lfoot -31.0985 5.64309
ltoes 2.83045
322
root -7.758 15.442 -3.66364 -0.691625 72.7642 -23.0869
lowerback 25.7164 9.21919 1.22712
upperback 8.38837 13.4337 8.71469
thorax -6.58846 6.66939 4.59641
lowerneck -21.1707 3.00366 6.1179
upperneck 1.27436 3.28906 -7.642
head 3.94087 1.32889 -3.06797
rclavicle 5.40694e-014 1.00187e-013
rhumerus -21.9704 34.3724 -93.541
rradius 79.831
rwrist -11.5958
rhand -12.9685 -16.3568
rfingers 7.12502
rthumb 13.1235 -45.9238
lclavicle 5.40694e-014 1.00187e-013
lhumerus -0.0185007 33.274 7.31579
lradius 64.8551
lwrist 22.6224
lhand -46.1508 -33.5137
lfingers 7.12502
lthumb -18.8907 -4.41101
rfemur 26.5896 9.40911 17.905
rtibia 51.1828
rfoot 7.1057 0.0903663
rtoes 13.6762
lfemur -39.047 6.19165 -30.9755
ltibia 55.3494
lfoot -31.1832 4.67553
ltoes 1.74803
323
root -7.4953 15.4359 -3.67673 -0.889609 74.5887 -23.3942
lowerback 25.3884 8.74297 1.7904
upperback 8.11991 12.9925 8.82501
thorax -6.59481 6.46652 4.58694
lowerneck -21.7085 2.92492 5.77968
upperneck 1.58343 3.27012 -7.6946
head 4.11147 1.30163 -3.03017
rclavicle -8.5875e-014 2.38542e-014
rhumerus -23.877 35.8013 -93.9219
rradius 83.4368
rwrist -11.308
rhand -9.55787 -18.1844
rfingers 7.12502
rthumb 16.4094 -47.5103
lclavicle -8.5875e-014 2.38542e-014
lhumerus 3.68798 35.1102 9.48285
lradius 64.873
lwrist 21.555
lhand -47.0333 -35.9277
lfingers 7.12502
lthumb -19.7393 -6.90992
rfemur 26.5896 9.40911 17.905
rtibia 51.1828
rfoot 7.1057 0.0903663
rtoes 13.6762
lfemur -37.2975 5.16216 -31.4621
ltibia 54.3704
lfoot -31.2404 3.57622
ltoes 1.51406
324
root -7.2263 15.4464 -3.6828 0.281257 76.2918 -22.2215
lowerback 25.1384 8.36003 1.89921
upperback 7.88281 12.5428 8.83364
thorax -6.67541 6.2564 4.70074
lowerneck -22.0057 2.81572 5.33828
upperneck 1.74166 3.23427 -7.61578
head 4.19381 1.27881 -2.9368
rclavicle -1.90833e-014 2.70347e-014
rhumerus -25.9241 37.063 -94.3311
rradius 86.9007
rwrist -10.9209
rhand -8.77487 -17.4136
rfingers 7.12502
rthumb 17.1631 -46.6756
lclavicle -1.90833e-014 2.70347e-014
lhumerus 7.67917 36.4663 11.8016
lradius 64.6033
lwrist 20.6232
lhand -48.4101 -38.8137
lfingers 7.12502
lthumb -21.0624 -9.93756
rfemur 17.9957 15.4666 4.58715
rtibia 82.8685
rfoot 5.54296 -172.544
rtoes -12.3132
lfemur -35.1465 4.2518 -32.1869
ltibia 52.9049
lfoot -31.2084 2.10459
ltoes 2.75821
325
root -6.96065 15.4754 -3.69448 4.38422 77.9849 -18.1522
lowerback 24.9908 8.03176 1.57781
upperback 7.54773 12.0305 8.61269
thorax -6.94119 6.00711 4.79679
lowerneck -22.2392 2.66671 4.97969
upperneck 1.96936 3.11721 -7.43357
head 4.28207 1.22103 -2.83255
rclavicle 6.67916e-014 1.24042e-013
rhumerus -27.8126 38.3569 -94.6955
rradius 89.8282
rwrist -10.4679
rhand -8.36373 -15.5661
rfingers 7.12502
rthumb 17.5588 -44.7932
lclavicle 6.67916e-014 1.24042e-013
lhumerus 11.9569 37.173 14.0856
lradius 63.8949
lwrist 19.8521
lhand -49.3319 -42.2294
lfingers 7.12502
lthumb -21.9477 -13.4544
rfemur 15.1655 16.0483 2.94708
rtibia 78.3952
rfoot 6.66496 -173.762
rtoes 11.0759
lfemur -33.0339 3.33301 -33.5062
ltibia 51.2245
lfoot -31.0442 0.637666
ltoes 3.35081
326
root -6.72109 15.5126 -3.7017 12.7506 80.0464 -10.2792
lowerback 24.5952 7.60603 0.979932
upperback 6.99602 11.2954 8.20917
thorax -7.3107 5.64986 4.93397
lowerneck -22.3568 2.51397 4.74621
upperneck 2.09318 2.96725 -7.30403
head 4.32255 1.14883 -2.76898
rclavicle -6.99722e-014 6.36111e-015
rhumerus -29.6916 39.6386 -94.9983
rradius 92.6525
rwrist -10.3611
rhand -7.87617 -16.6772
rfingers 7.12502
rthumb 18.028 -45.8617
lclavicle -6.99722e-014 6.36111e-015
lhumerus 15.8092 36.9988 15.8829
lradius 63.3901
lwrist 19.7093
lhand -49.8929 -45.9172
lfingers 7.12502
lthumb -22.4863 -17.2064
rfemur 11.5408 15.7907 0.440301
rtibia 74.0959
rfoot 5.60261 -174.522
rtoes 16.7114
lfemur -31.6253 2.05673 -35.3014
ltibia 49.713
lfoot -30.5895 -0.916657
ltoes 3.60157
327
root -6.45712 15.5698 -3.71296 25.7589 81.499 2.4879
lowerback 24.1663 7.17082 -0.00670316
upperback 6.98429 10.4428 7.86759
thorax -7.11941 5.25467 5.43081
lowerneck -23.8251 2.59858 4.46045
upperneck 2.60518 3.17029 -7.43446
head 4.70847 1.21014 -2.74123
rclavicle -2.8625e-014 -5.40694e-014
rhumerus -30.7284 41.4683 -94.5059
rradius 95.3878
rwrist -10.7782
rhand -7.87255 -17.1093
rfingers 7.12502
rthumb 18.0315 -46.2935
lclavicle -2.8625e-014 -5.40694e-014
lhumerus 18.6351 36.9167 17.0167
lradius 63.2211
lwrist 20.1413
lhand -50.1101 -49.407
lfingers 7.12502
lthumb -22.6948 -20.7216
rfemur 7.77299 15.8417 -2.51856
rtibia 70.417
rfoot 4.18416 -175.629
rtoes 20.3659
lfemur -29.546 1.15462 -37.3705
ltibia 47.5755
lfoot -29.8832 -2.35972
ltoes 4.3059
